<svg width="40" height="24" viewBox="0 0 40 24" fill="none" xmlns="http://www.w3.org/2000/svg">
<path d="M1.52135 0.00015001C1.32259 -0.00266104 1.12524 0.0340607 0.940793 0.108181C0.756342 0.182301 0.588461 0.292341 0.446908 0.431907C0.305354 0.571473 0.192951 0.737781 0.11623 0.921166C0.0395085 1.10455 0 1.30135 0 1.50014C0 1.69893 0.0395085 1.89573 0.11623 2.07912C0.192951 2.2625 0.305354 2.42881 0.446908 2.56837C0.588461 2.70794 0.756342 2.81798 0.940793 2.8921C1.12524 2.96622 1.32259 3.00294 1.52135 3.00013H37.5211C37.7199 3.00294 37.9172 2.96622 38.1017 2.8921C38.2861 2.81798 38.454 2.70794 38.5956 2.56837C38.7371 2.42881 38.8495 2.2625 38.9263 2.07912C39.003 1.89573 39.0425 1.69893 39.0425 1.50014C39.0425 1.30135 39.003 1.10455 38.9263 0.921166C38.8495 0.737781 38.7371 0.571473 38.5956 0.431907C38.454 0.292341 38.2861 0.182301 38.1017 0.108181C37.9172 0.0340607 37.7199 -0.00266104 37.5211 0.00015001H1.52135ZM1.52135 10.5001C1.32259 10.4973 1.12524 10.534 0.940793 10.6081C0.756342 10.6822 0.588461 10.7923 0.446908 10.9318C0.305354 11.0714 0.192951 11.2377 0.11623 11.4211C0.0395085 11.6045 0 11.8013 0 12.0001C0 12.1989 0.0395085 12.3957 0.11623 12.5791C0.192951 12.7624 0.305354 12.9287 0.446908 13.0683C0.588461 13.2079 0.756342 13.3179 0.940793 13.392C1.12524 13.4662 1.32259 13.5029 1.52135 13.5001H37.5211C37.7199 13.5029 37.9172 13.4662 38.1017 13.392C38.2861 13.3179 38.454 13.2079 38.5956 13.0683C38.7371 12.9287 38.8495 12.7624 38.9263 12.5791C39.003 12.3957 39.0425 12.1989 39.0425 12.0001C39.0425 11.8013 39.003 11.6045 38.9263 11.4211C38.8495 11.2377 38.7371 11.0714 38.5956 10.9318C38.454 10.7923 38.2861 10.6822 38.1017 10.6081C37.9172 10.534 37.7199 10.4973 37.5211 10.5001H1.52135ZM1.52135 21C1.32259 20.9972 1.12524 21.0339 0.940793 21.1081C0.756342 21.1822 0.588461 21.2922 0.446908 21.4318C0.305354 21.5713 0.192951 21.7376 0.11623 21.921C0.0395085 22.1044 0 22.3012 0 22.5C0 22.6988 0.0395085 22.8956 0.11623 23.079C0.192951 23.2624 0.305354 23.4287 0.446908 23.5682C0.588461 23.7078 0.756342 23.8179 0.940793 23.892C1.12524 23.9661 1.32259 24.0028 1.52135 24H37.5211C37.7199 24.0028 37.9172 23.9661 38.1017 23.892C38.2861 23.8179 38.454 23.7078 38.5956 23.5682C38.7371 23.4287 38.8495 23.2624 38.9263 23.079C39.003 22.8956 39.0425 22.6988 39.0425 22.5C39.0425 22.3012 39.003 22.1044 38.9263 21.921C38.8495 21.7376 38.7371 21.5713 38.5956 21.4318C38.454 21.2922 38.2861 21.1822 38.1017 21.1081C37.9172 21.0339 37.7199 20.9972 37.5211 21H1.52135Z" fill="#0A2463"/>
</svg>
