<svg width="193" height="105" viewBox="0 0 193 105" fill="none" xmlns="http://www.w3.org/2000/svg">
<g clip-path="url(#clip0_22_1558)">
<path d="M92.2296 31.0222H12.2661C5.49173 31.0222 0 36.514 0 43.2883V61.024C0 67.7984 5.49173 73.2901 12.2661 73.2901H92.2296C99.004 73.2901 104.496 67.7984 104.496 61.024V43.2883C104.496 36.514 99.004 31.0222 92.2296 31.0222Z" fill="#0A2463"/>
</g>
<path d="M13.5393 48.6634V46.4782H23.8347V48.6634H19.9969V59.0138H17.3771V48.6634H13.5393ZM28.4024 59.1974C27.4353 59.1974 26.6028 59.0016 25.9051 58.6098C25.2114 58.214 24.6768 57.655 24.3014 56.9327C23.926 56.2063 23.7383 55.3474 23.7383 54.3558C23.7383 53.3887 23.926 52.5399 24.3014 51.8095C24.6768 51.0791 25.2052 50.5098 25.8867 50.1018C26.5722 49.6937 27.3761 49.4897 28.2983 49.4897C28.9186 49.4897 29.496 49.5897 30.0305 49.7896C30.5692 49.9855 31.0384 50.2813 31.4383 50.6771C31.8423 51.073 32.1565 51.5708 32.381 52.1706C32.6054 52.7664 32.7176 53.4642 32.7176 54.264V54.9801H24.7788V53.3642H30.2631C30.2631 52.9888 30.1815 52.6562 30.0183 52.3665C29.8551 52.0768 29.6286 51.8503 29.3389 51.6871C29.0532 51.5198 28.7207 51.4361 28.3412 51.4361C27.9454 51.4361 27.5944 51.5279 27.2884 51.7116C26.9864 51.8911 26.7497 52.1339 26.5784 52.44C26.407 52.7419 26.3192 53.0786 26.3152 53.4499V54.9863C26.3152 55.4514 26.4008 55.8534 26.5722 56.1921C26.7477 56.5308 26.9946 56.7919 27.3129 56.9755C27.6311 57.1592 28.0086 57.251 28.4452 57.251C28.7349 57.251 29.0002 57.2102 29.2409 57.1286C29.4817 57.0469 29.6878 56.9245 29.8591 56.7613C30.0305 56.5981 30.1611 56.3981 30.2509 56.1615L32.6625 56.3206C32.5401 56.9 32.2891 57.406 31.9096 57.8386C31.5342 58.267 31.0486 58.6017 30.4529 58.8424C29.8612 59.0791 29.1777 59.1974 28.4024 59.1974ZM38.6671 59.1974C37.7041 59.1974 36.8757 58.9934 36.182 58.5853C35.4924 58.1732 34.9619 57.6019 34.5906 56.8715C34.2233 56.1411 34.0397 55.3005 34.0397 54.3497C34.0397 53.3867 34.2254 52.542 34.5967 51.8156C34.9721 51.0852 35.5046 50.516 36.1943 50.1079C36.8839 49.6958 37.7041 49.4897 38.6549 49.4897C39.4751 49.4897 40.1932 49.6386 40.8094 49.9365C41.4256 50.2344 41.9132 50.6527 42.2723 51.1913C42.6314 51.7299 42.8293 52.3624 42.866 53.0888H40.4054C40.3361 52.6195 40.1524 52.2421 39.8546 51.9564C39.5608 51.6667 39.1751 51.5218 38.6977 51.5218C38.2937 51.5218 37.9408 51.632 37.6388 51.8524C37.3409 52.0686 37.1083 52.3849 36.941 52.8011C36.7737 53.2173 36.6901 53.7213 36.6901 54.313C36.6901 54.9128 36.7717 55.4229 36.9349 55.8432C37.1022 56.2635 37.3368 56.5838 37.6388 56.8042C37.9408 57.0245 38.2937 57.1347 38.6977 57.1347C38.9956 57.1347 39.2629 57.0735 39.4995 56.9511C39.7403 56.8286 39.9382 56.6511 40.0933 56.4185C40.2524 56.1819 40.3565 55.8983 40.4054 55.5677H42.866C42.8252 56.2859 42.6294 56.9184 42.2784 57.4652C41.9316 58.0079 41.4521 58.4323 40.84 58.7384C40.2279 59.0444 39.5036 59.1974 38.6671 59.1974ZM47.143 53.5784V59.0138H44.5355V46.4782H47.0696V51.2709H47.1797C47.3919 50.7159 47.7347 50.2813 48.208 49.9671C48.6814 49.6488 49.2751 49.4897 49.9892 49.4897C50.6421 49.4897 51.2114 49.6325 51.6969 49.9182C52.1866 50.1997 52.5661 50.6057 52.8354 51.1362C53.1088 51.6626 53.2435 52.2931 53.2394 53.0276V59.0138H50.6319V53.4928C50.636 52.9133 50.4891 52.4624 50.1912 52.14C49.8974 51.8177 49.4853 51.6565 48.9548 51.6565C48.5998 51.6565 48.2856 51.732 48.0122 51.883C47.7429 52.0339 47.5307 52.2543 47.3756 52.544C47.2246 52.8297 47.1471 53.1745 47.143 53.5784ZM59.3297 59.0138V46.4782H61.98V51.6504H67.3603V46.4782H70.0045V59.0138H67.3603V53.8355H61.98V59.0138H59.3297ZM78.1698 55.0107V49.6121H80.7773V59.0138H78.2738V57.3061H78.1759C77.9637 57.8569 77.6107 58.2997 77.117 58.6343C76.6273 58.9689 76.0295 59.1362 75.3236 59.1362C74.6952 59.1362 74.1422 58.9934 73.6648 58.7077C73.1874 58.4221 72.814 58.0161 72.5447 57.4897C72.2794 56.9633 72.1448 56.3328 72.1407 55.5983V49.6121H74.7482V55.1332C74.7523 55.6881 74.9012 56.1268 75.195 56.4491C75.4888 56.7715 75.8826 56.9327 76.3764 56.9327C76.6906 56.9327 76.9844 56.8613 77.2578 56.7185C77.5312 56.5716 77.7515 56.3553 77.9188 56.0696C78.0902 55.784 78.1739 55.431 78.1698 55.0107ZM82.9119 59.0138V46.4782H85.5194V51.1913H85.599C85.7133 50.9383 85.8785 50.6812 86.0948 50.4201C86.3151 50.1548 86.6008 49.9345 86.9517 49.759C87.3067 49.5795 87.7474 49.4897 88.2738 49.4897C88.9594 49.4897 89.5919 49.6692 90.1713 50.0283C90.7508 50.3833 91.2139 50.9199 91.5607 51.6381C91.9076 52.3522 92.081 53.2479 92.081 54.3252C92.081 55.3739 91.9117 56.2594 91.573 56.9817C91.2384 57.6998 90.7814 58.2446 90.2019 58.6159C89.6265 58.9832 88.9818 59.1668 88.2677 59.1668C87.7617 59.1668 87.3312 59.0832 86.9762 58.9159C86.6253 58.7486 86.3376 58.5384 86.1132 58.2854C85.8887 58.0283 85.7173 57.7692 85.599 57.5081H85.4827V59.0138H82.9119ZM85.4643 54.313C85.4643 54.872 85.5419 55.3596 85.6969 55.7758C85.852 56.1921 86.0764 56.5165 86.3702 56.7491C86.664 56.9776 87.0211 57.0918 87.4414 57.0918C87.8658 57.0918 88.2249 56.9755 88.5187 56.7429C88.8125 56.5063 89.0349 56.1798 89.1858 55.7636C89.3409 55.3433 89.4184 54.8598 89.4184 54.313C89.4184 53.7702 89.3429 53.2928 89.192 52.8807C89.041 52.4685 88.8186 52.1462 88.5248 51.9136C88.231 51.681 87.8699 51.5647 87.4414 51.5647C87.017 51.5647 86.6579 51.6769 86.3641 51.9013C86.0744 52.1258 85.852 52.444 85.6969 52.8562C85.5419 53.2683 85.4643 53.7539 85.4643 54.313Z" fill="white"/>
<path d="M119.926 50.0834C119.877 49.5897 119.667 49.2061 119.296 48.9327C118.925 48.6593 118.421 48.5226 117.784 48.5226C117.352 48.5226 116.986 48.5838 116.688 48.7062C116.391 48.8246 116.162 48.9898 116.003 49.202C115.848 49.4142 115.77 49.655 115.77 49.9243C115.762 50.1487 115.809 50.3446 115.911 50.5119C116.017 50.6792 116.162 50.824 116.346 50.9465C116.529 51.0648 116.742 51.1689 116.982 51.2586C117.223 51.3443 117.48 51.4178 117.754 51.479L118.88 51.7483C119.427 51.8707 119.928 52.0339 120.386 52.238C120.843 52.442 121.238 52.693 121.573 52.9908C121.908 53.2887 122.167 53.6397 122.35 54.0436C122.538 54.4476 122.634 54.9108 122.638 55.4331C122.634 56.2002 122.438 56.8654 122.05 57.4285C121.667 57.9875 121.112 58.4221 120.386 58.7322C119.663 59.0383 118.792 59.1913 117.772 59.1913C116.76 59.1913 115.878 59.0362 115.128 58.7261C114.381 58.416 113.797 57.9569 113.377 57.3489C112.961 56.7368 112.743 55.9799 112.722 55.0781H115.287C115.315 55.4984 115.436 55.8493 115.648 56.1309C115.864 56.4083 116.152 56.6185 116.511 56.7613C116.874 56.9 117.284 56.9694 117.741 56.9694C118.19 56.9694 118.58 56.9041 118.91 56.7735C119.245 56.643 119.504 56.4614 119.688 56.2288C119.871 55.9962 119.963 55.7289 119.963 55.427C119.963 55.1454 119.88 54.9087 119.712 54.7169C119.549 54.5251 119.308 54.3619 118.99 54.2273C118.676 54.0926 118.29 53.9702 117.833 53.86L116.468 53.5172C115.411 53.2602 114.577 52.8582 113.965 52.3114C113.353 51.7646 113.049 51.0281 113.053 50.1018C113.049 49.3428 113.251 48.6797 113.659 48.1125C114.071 47.5453 114.636 47.1025 115.354 46.7843C116.072 46.466 116.888 46.3068 117.802 46.3068C118.733 46.3068 119.545 46.466 120.239 46.7843C120.936 47.1025 121.479 47.5453 121.867 48.1125C122.254 48.6797 122.454 49.3367 122.467 50.0834H119.926ZM128.62 59.1974C127.669 59.1974 126.847 58.9954 126.153 58.5915C125.463 58.1834 124.931 57.6162 124.555 56.8898C124.18 56.1594 123.992 55.3127 123.992 54.3497C123.992 53.3785 124.18 52.5297 124.555 51.8034C124.931 51.073 125.463 50.5058 126.153 50.1018C126.847 49.6937 127.669 49.4897 128.62 49.4897C129.57 49.4897 130.391 49.6937 131.08 50.1018C131.774 50.5058 132.308 51.073 132.684 51.8034C133.059 52.5297 133.247 53.3785 133.247 54.3497C133.247 55.3127 133.059 56.1594 132.684 56.8898C132.308 57.6162 131.774 58.1834 131.08 58.5915C130.391 58.9954 129.57 59.1974 128.62 59.1974ZM128.632 57.1775C129.064 57.1775 129.426 57.0551 129.715 56.8103C130.005 56.5614 130.223 56.2227 130.37 55.7942C130.521 55.3657 130.597 54.8781 130.597 54.3313C130.597 53.7845 130.521 53.2969 130.37 52.8684C130.223 52.44 130.005 52.1013 129.715 51.8524C129.426 51.6034 129.064 51.479 128.632 51.479C128.195 51.479 127.828 51.6034 127.53 51.8524C127.236 52.1013 127.014 52.44 126.863 52.8684C126.716 53.2969 126.643 53.7845 126.643 54.3313C126.643 54.8781 126.716 55.3657 126.863 55.7942C127.014 56.2227 127.236 56.5614 127.53 56.8103C127.828 57.0551 128.195 57.1775 128.632 57.1775ZM137.55 46.4782V59.0138H134.943V46.4782H137.55ZM145.668 55.0107V49.6121H148.275V59.0138H145.772V57.3061H145.674C145.462 57.8569 145.109 58.2997 144.615 58.6343C144.125 58.9689 143.528 59.1362 142.822 59.1362C142.193 59.1362 141.64 58.9934 141.163 58.7077C140.685 58.4221 140.312 58.0161 140.043 57.4897C139.778 56.9633 139.643 56.3328 139.639 55.5983V49.6121H142.246V55.1332C142.25 55.6881 142.399 56.1268 142.693 56.4491C142.987 56.7715 143.381 56.9327 143.874 56.9327C144.189 56.9327 144.482 56.8613 144.756 56.7185C145.029 56.5716 145.25 56.3553 145.417 56.0696C145.588 55.784 145.672 55.431 145.668 55.0107ZM155.362 49.6121V51.5708H149.7V49.6121H155.362ZM150.985 47.3596H153.593V56.1247C153.593 56.3655 153.63 56.5532 153.703 56.6879C153.776 56.8184 153.878 56.9102 154.009 56.9633C154.144 57.0163 154.299 57.0429 154.474 57.0429C154.597 57.0429 154.719 57.0327 154.842 57.0123C154.964 56.9878 155.058 56.9694 155.123 56.9572L155.533 58.8975C155.403 58.9383 155.219 58.9852 154.982 59.0383C154.746 59.0954 154.458 59.1301 154.119 59.1423C153.491 59.1668 152.94 59.0832 152.467 58.8914C151.997 58.6996 151.632 58.4017 151.371 57.9977C151.11 57.5937 150.981 57.0837 150.985 56.4675V47.3596ZM157.06 59.0138V49.6121H159.668V59.0138H157.06ZM158.37 48.4002C157.983 48.4002 157.65 48.2716 157.372 48.0146C157.099 47.7534 156.962 47.4412 156.962 47.0781C156.962 46.719 157.099 46.4109 157.372 46.1538C157.65 45.8927 157.983 45.7621 158.37 45.7621C158.758 45.7621 159.088 45.8927 159.362 46.1538C159.639 46.4109 159.778 46.719 159.778 47.0781C159.778 47.4412 159.639 47.7534 159.362 48.0146C159.088 48.2716 158.758 48.4002 158.37 48.4002ZM166.004 59.1974C165.054 59.1974 164.231 58.9954 163.538 58.5915C162.848 58.1834 162.316 57.6162 161.94 56.8898C161.565 56.1594 161.377 55.3127 161.377 54.3497C161.377 53.3785 161.565 52.5297 161.94 51.8034C162.316 51.073 162.848 50.5058 163.538 50.1018C164.231 49.6937 165.054 49.4897 166.004 49.4897C166.955 49.4897 167.775 49.6937 168.465 50.1018C169.159 50.5058 169.693 51.073 170.069 51.8034C170.444 52.5297 170.632 53.3785 170.632 54.3497C170.632 55.3127 170.444 56.1594 170.069 56.8898C169.693 57.6162 169.159 58.1834 168.465 58.5915C167.775 58.9954 166.955 59.1974 166.004 59.1974ZM166.017 57.1775C166.449 57.1775 166.81 57.0551 167.1 56.8103C167.39 56.5614 167.608 56.2227 167.755 55.7942C167.906 55.3657 167.982 54.8781 167.982 54.3313C167.982 53.7845 167.906 53.2969 167.755 52.8684C167.608 52.44 167.39 52.1013 167.1 51.8524C166.81 51.6034 166.449 51.479 166.017 51.479C165.58 51.479 165.213 51.6034 164.915 51.8524C164.621 52.1013 164.399 52.44 164.248 52.8684C164.101 53.2969 164.027 53.7845 164.027 54.3313C164.027 54.8781 164.101 55.3657 164.248 55.7942C164.399 56.2227 164.621 56.5614 164.915 56.8103C165.213 57.0551 165.58 57.1775 166.017 57.1775ZM174.935 53.5784V59.0138H172.327V49.6121H174.812V51.2709H174.923C175.131 50.7241 175.48 50.2915 175.969 49.9732C176.459 49.6509 177.053 49.4897 177.75 49.4897C178.403 49.4897 178.973 49.6325 179.458 49.9182C179.944 50.2038 180.321 50.6119 180.591 51.1423C180.86 51.6687 180.995 52.2971 180.995 53.0276V59.0138H178.387V53.4928C178.391 52.9174 178.244 52.4685 177.946 52.1462C177.648 51.8197 177.238 51.6565 176.716 51.6565C176.365 51.6565 176.055 51.732 175.786 51.883C175.52 52.0339 175.312 52.2543 175.161 52.544C175.014 52.8297 174.939 53.1745 174.935 53.5784ZM190.872 52.2931L188.485 52.44C188.444 52.2359 188.356 52.0523 188.222 51.8891C188.087 51.7218 187.91 51.5892 187.689 51.4912C187.473 51.3892 187.214 51.3382 186.912 51.3382C186.508 51.3382 186.167 51.4239 185.89 51.5953C185.612 51.7626 185.473 51.987 185.473 52.2686C185.473 52.493 185.563 52.6828 185.743 52.8378C185.922 52.9929 186.23 53.1173 186.667 53.2112L188.369 53.554C189.283 53.7417 189.964 54.0436 190.413 54.4599C190.862 54.8761 191.086 55.4229 191.086 56.1003C191.086 56.7164 190.905 57.2571 190.542 57.7223C190.182 58.1875 189.689 58.5506 189.06 58.8118C188.436 59.0689 187.716 59.1974 186.9 59.1974C185.655 59.1974 184.663 58.9383 183.925 58.4201C183.19 57.8978 182.76 57.1877 182.633 56.29L185.198 56.1553C185.276 56.5348 185.463 56.8246 185.761 57.0245C186.059 57.2204 186.441 57.3183 186.906 57.3183C187.363 57.3183 187.73 57.2306 188.008 57.0551C188.289 56.8756 188.432 56.645 188.436 56.3634C188.432 56.1268 188.332 55.9329 188.136 55.782C187.94 55.6269 187.638 55.5086 187.23 55.427L185.602 55.1025C184.684 54.9189 184 54.6006 183.552 54.1477C183.107 53.6947 182.884 53.1173 182.884 52.4155C182.884 51.8115 183.048 51.2913 183.374 50.8547C183.705 50.418 184.168 50.0814 184.763 49.8447C185.363 49.608 186.065 49.4897 186.869 49.4897C188.057 49.4897 188.991 49.7407 189.672 50.2426C190.358 50.7445 190.758 51.428 190.872 52.2931Z" fill="#0A2463"/>
<defs>
<clipPath id="clip0_22_1558">
<rect width="104.496" height="104.496" fill="white"/>
</clipPath>
</defs>
</svg>
