<svg width="185" height="42" viewBox="0 0 185 42" fill="none" xmlns="http://www.w3.org/2000/svg">
<path d="M88.5405 0.78125H11.7755C5.27207 0.78125 0 6.05332 0 12.5567V29.583C0 36.0864 5.27207 41.3585 11.7755 41.3585H88.5405C95.0439 41.3585 100.316 36.0864 100.316 29.583V12.5567C100.316 6.05332 95.0439 0.78125 88.5405 0.78125Z" fill="#FF6F61"/>
<path d="M12.9982 17.3966V15.2989H22.8818V17.3966H19.1975V27.333H16.6825V17.3966H12.9982ZM27.2668 27.5093C26.3384 27.5093 25.5392 27.3213 24.8693 26.9452C24.2034 26.5652 23.6902 26.0285 23.3298 25.3352C22.9694 24.6379 22.7892 23.8133 22.7892 22.8613C22.7892 21.9329 22.9694 21.1181 23.3298 20.4169C23.6902 19.7157 24.1975 19.1692 24.8517 18.7775C25.5098 18.3857 26.2816 18.1899 27.1669 18.1899C27.7623 18.1899 28.3166 18.2858 28.8298 18.4778C29.3469 18.6658 29.7974 18.9498 30.1813 19.3298C30.5691 19.7098 30.8708 20.1877 31.0862 20.7636C31.3017 21.3355 31.4094 22.0054 31.4094 22.7732V23.4607H23.7881V21.9094H29.0531C29.0531 21.549 28.9747 21.2297 28.818 20.9516C28.6614 20.6735 28.4439 20.4561 28.1658 20.2994C27.8916 20.1388 27.5723 20.0585 27.208 20.0585C26.828 20.0585 26.4911 20.1466 26.1973 20.3229C25.9074 20.4952 25.6802 20.7283 25.5157 21.0221C25.3512 21.312 25.267 21.6352 25.263 21.9917V23.4666C25.263 23.9131 25.3453 24.299 25.5098 24.6241C25.6783 24.9493 25.9153 25.2 26.2208 25.3763C26.5264 25.5526 26.8887 25.6407 27.3079 25.6407C27.586 25.6407 27.8407 25.6015 28.0718 25.5232C28.3029 25.4448 28.5007 25.3273 28.6653 25.1706C28.8298 25.0139 28.9552 24.822 29.0413 24.5948L31.3565 24.7475C31.239 25.3038 30.9981 25.7896 30.6337 26.2048C30.2734 26.6161 29.8072 26.9374 29.2352 27.1685C28.6672 27.3957 28.0111 27.5093 27.2668 27.5093ZM37.1209 27.5093C36.1964 27.5093 35.4012 27.3134 34.7352 26.9217C34.0732 26.526 33.5639 25.9776 33.2075 25.2764C32.8549 24.5752 32.6786 23.7682 32.6786 22.8555C32.6786 21.931 32.8569 21.1201 33.2133 20.4228C33.5737 19.7216 34.085 19.1751 34.747 18.7834C35.409 18.3877 36.1964 18.1899 37.1092 18.1899C37.8966 18.1899 38.586 18.3329 39.1775 18.6188C39.7691 18.9048 40.2372 19.3063 40.5819 19.8234C40.9266 20.3405 41.1166 20.9477 41.1519 21.645H38.7897C38.7231 21.1945 38.5468 20.8321 38.2609 20.5579C37.9788 20.2798 37.6086 20.1407 37.1503 20.1407C36.7625 20.1407 36.4236 20.2465 36.1337 20.458C35.8478 20.6656 35.6245 20.9692 35.4639 21.3688C35.3033 21.7684 35.2229 22.2522 35.2229 22.8202C35.2229 23.3961 35.3013 23.8857 35.458 24.2892C35.6186 24.6927 35.8438 25.0002 36.1337 25.2118C36.4236 25.4233 36.7625 25.5291 37.1503 25.5291C37.4363 25.5291 37.6928 25.4703 37.9201 25.3528C38.1512 25.2353 38.3412 25.0649 38.49 24.8416C38.6428 24.6144 38.7427 24.3421 38.7897 24.0248H41.1519C41.1127 24.7142 40.9247 25.3214 40.5878 25.8464C40.2548 26.3674 39.7945 26.7748 39.2069 27.0686C38.6193 27.3624 37.924 27.5093 37.1209 27.5093ZM45.2578 22.1151V27.333H42.7546V15.2989H45.1873V19.8998H45.293C45.4967 19.367 45.8258 18.9498 46.2802 18.6482C46.7346 18.3426 47.3046 18.1899 47.9901 18.1899C48.6169 18.1899 49.1634 18.327 49.6296 18.6012C50.0996 18.8715 50.464 19.2613 50.7225 19.7705C50.985 20.2759 51.1142 20.8811 51.1103 21.5862V27.333H48.6071V22.0328C48.611 21.4765 48.47 21.0437 48.184 20.7342C47.902 20.4247 47.5063 20.27 46.9971 20.27C46.6563 20.27 46.3546 20.3425 46.0922 20.4874C45.8336 20.6324 45.6299 20.8439 45.4811 21.122C45.3361 21.3962 45.2617 21.7273 45.2578 22.1151ZM56.957 27.333V15.2989H59.5013V20.2641H64.6664V15.2989H67.2048V27.333H64.6664V22.3619H59.5013V27.333H56.957ZM75.0435 23.4901V18.3074H77.5467V27.333H75.1434V25.6936H75.0494C74.8457 26.2224 74.5068 26.6475 74.0328 26.9687C73.5627 27.2899 72.9888 27.4505 72.3111 27.4505C71.7078 27.4505 71.177 27.3134 70.7187 27.0392C70.2604 26.765 69.9019 26.3752 69.6434 25.8699C69.3888 25.3645 69.2595 24.7593 69.2556 24.0542V18.3074H71.7588V23.6076C71.7627 24.1404 71.9057 24.5615 72.1877 24.8709C72.4698 25.1804 72.8478 25.3352 73.3218 25.3352C73.6234 25.3352 73.9055 25.2666 74.1679 25.1295C74.4304 24.9885 74.6419 24.7808 74.8026 24.5066C74.9671 24.2324 75.0474 23.8936 75.0435 23.4901ZM79.5959 27.333V15.2989H82.0991V19.8234H82.1755C82.2852 19.5805 82.4439 19.3337 82.6515 19.083C82.863 18.8284 83.1372 18.6169 83.4741 18.4484C83.815 18.2761 84.238 18.1899 84.7434 18.1899C85.4015 18.1899 86.0087 18.3622 86.5649 18.707C87.1212 19.0478 87.5658 19.5629 87.8988 20.2524C88.2318 20.9379 88.3983 21.7978 88.3983 22.832C88.3983 23.8387 88.2357 24.6888 87.9106 25.3822C87.5893 26.0716 87.1506 26.5946 86.5943 26.9511C86.042 27.3036 85.423 27.4799 84.7375 27.4799C84.2517 27.4799 83.8385 27.3996 83.4976 27.239C83.1608 27.0784 82.8846 26.8766 82.6691 26.6338C82.4537 26.387 82.2891 26.1382 82.1755 25.8875H82.0639V27.333H79.5959ZM82.0463 22.8202C82.0463 23.3569 82.1207 23.825 82.2696 24.2246C82.4184 24.6241 82.6339 24.9356 82.9159 25.1589C83.198 25.3782 83.5407 25.4879 83.9442 25.4879C84.3516 25.4879 84.6964 25.3763 84.9784 25.153C85.2605 24.9258 85.474 24.6124 85.6189 24.2128C85.7678 23.8093 85.8422 23.3451 85.8422 22.8202C85.8422 22.2992 85.7697 21.8409 85.6248 21.4452C85.4798 21.0496 85.2663 20.7401 84.9843 20.5168C84.7022 20.2935 84.3555 20.1819 83.9442 20.1819C83.5368 20.1819 83.1921 20.2896 82.91 20.505C82.6319 20.7205 82.4184 21.026 82.2696 21.4217C82.1207 21.8174 82.0463 22.2835 82.0463 22.8202Z" fill="white"/>
<path d="M115.129 18.7598C115.082 18.2858 114.881 17.9176 114.524 17.6552C114.168 17.3927 113.684 17.2615 113.073 17.2615C112.658 17.2615 112.307 17.3202 112.021 17.4377C111.735 17.5513 111.516 17.71 111.363 17.9137C111.214 18.1174 111.14 18.3485 111.14 18.6071C111.132 18.8225 111.177 19.0106 111.275 19.1712C111.377 19.3318 111.516 19.4709 111.692 19.5884C111.868 19.702 112.072 19.8019 112.303 19.8881C112.534 19.9703 112.781 20.0408 113.043 20.0996L114.125 20.3581C114.65 20.4757 115.131 20.6324 115.57 20.8282C116.009 21.0241 116.389 21.265 116.71 21.551C117.031 21.8369 117.28 22.1738 117.456 22.5617C117.637 22.9495 117.729 23.3941 117.732 23.8955C117.729 24.632 117.541 25.2705 117.168 25.8111C116.8 26.3478 116.267 26.765 115.57 27.0627C114.877 27.3565 114.04 27.5034 113.061 27.5034C112.09 27.5034 111.243 27.3546 110.523 27.0568C109.806 26.7591 109.246 26.3184 108.842 25.7347C108.442 25.1471 108.233 24.4204 108.213 23.5547H110.675C110.703 23.9582 110.818 24.2951 111.022 24.5654C111.23 24.8318 111.506 25.0335 111.851 25.1706C112.199 25.3038 112.593 25.3704 113.032 25.3704C113.463 25.3704 113.837 25.3077 114.154 25.1824C114.475 25.057 114.724 24.8827 114.9 24.6594C115.077 24.4361 115.165 24.1795 115.165 23.8896C115.165 23.6193 115.084 23.3921 114.924 23.208C114.767 23.0239 114.536 22.8672 114.23 22.7379C113.929 22.6087 113.559 22.4911 113.12 22.3854L111.809 22.0563C110.795 21.8095 109.994 21.4237 109.406 20.8987C108.819 20.3738 108.527 19.6667 108.531 18.7775C108.527 18.0488 108.721 17.4123 109.112 16.8678C109.508 16.3232 110.051 15.8982 110.74 15.5927C111.429 15.2871 112.213 15.1343 113.09 15.1343C113.984 15.1343 114.763 15.2871 115.429 15.5927C116.099 15.8982 116.62 16.3232 116.992 16.8678C117.364 17.4123 117.556 18.043 117.568 18.7598H115.129ZM123.475 27.5093C122.562 27.5093 121.773 27.3154 121.107 26.9276C120.445 26.5358 119.934 25.9913 119.573 25.294C119.213 24.5928 119.033 23.78 119.033 22.8555C119.033 21.9231 119.213 21.1083 119.573 20.411C119.934 19.7098 120.445 19.1653 121.107 18.7775C121.773 18.3857 122.562 18.1899 123.475 18.1899C124.388 18.1899 125.175 18.3857 125.837 18.7775C126.503 19.1653 127.016 19.7098 127.377 20.411C127.737 21.1083 127.917 21.9231 127.917 22.8555C127.917 23.78 127.737 24.5928 127.377 25.294C127.016 25.9913 126.503 26.5358 125.837 26.9276C125.175 27.3154 124.388 27.5093 123.475 27.5093ZM123.487 25.5702C123.902 25.5702 124.249 25.4527 124.527 25.2176C124.805 24.9787 125.014 24.6535 125.155 24.2422C125.3 23.8309 125.373 23.3628 125.373 22.8378C125.373 22.3129 125.3 21.8448 125.155 21.4335C125.014 21.0221 124.805 20.697 124.527 20.458C124.249 20.2191 123.902 20.0996 123.487 20.0996C123.067 20.0996 122.715 20.2191 122.429 20.458C122.147 20.697 121.933 21.0221 121.788 21.4335C121.647 21.8448 121.577 22.3129 121.577 22.8378C121.577 23.3628 121.647 23.8309 121.788 24.2422C121.933 24.6535 122.147 24.9787 122.429 25.2176C122.715 25.4527 123.067 25.5702 123.487 25.5702ZM132.048 15.2989V27.333H129.545V15.2989H132.048ZM139.841 23.4901V18.3074H142.344V27.333H139.941V25.6936H139.847C139.643 26.2224 139.304 26.6475 138.83 26.9687C138.36 27.2899 137.786 27.4505 137.109 27.4505C136.506 27.4505 135.975 27.3134 135.516 27.0392C135.058 26.765 134.7 26.3752 134.441 25.8699C134.186 25.3645 134.057 24.7593 134.053 24.0542V18.3074H136.556V23.6076C136.56 24.1404 136.703 24.5615 136.985 24.8709C137.267 25.1804 137.645 25.3352 138.119 25.3352C138.421 25.3352 138.703 25.2666 138.966 25.1295C139.228 24.9885 139.44 24.7808 139.6 24.5066C139.765 24.2324 139.845 23.8936 139.841 23.4901ZM149.147 18.3074V20.1877H143.712V18.3074H149.147ZM144.946 16.145H147.449V24.5595C147.449 24.7906 147.484 24.9708 147.555 25.1001C147.625 25.2255 147.723 25.3136 147.849 25.3645C147.978 25.4155 148.127 25.4409 148.295 25.4409C148.413 25.4409 148.53 25.4311 148.648 25.4115C148.765 25.388 148.855 25.3704 148.918 25.3587L149.312 27.2214C149.187 27.2605 149.01 27.3056 148.783 27.3565C148.556 27.4114 148.28 27.4447 147.954 27.4564C147.351 27.4799 146.822 27.3996 146.368 27.2155C145.917 27.0314 145.567 26.7454 145.316 26.3576C145.065 25.9698 144.942 25.4801 144.946 24.8886V16.145ZM150.778 27.333V18.3074H153.281V27.333H150.778ZM152.035 17.1439C151.663 17.1439 151.344 17.0205 151.078 16.7737C150.815 16.523 150.684 16.2234 150.684 15.8747C150.684 15.53 150.815 15.2342 151.078 14.9874C151.344 14.7367 151.663 14.6114 152.035 14.6114C152.408 14.6114 152.725 14.7367 152.987 14.9874C153.254 15.2342 153.387 15.53 153.387 15.8747C153.387 16.2234 153.254 16.523 152.987 16.7737C152.725 17.0205 152.408 17.1439 152.035 17.1439ZM159.364 27.5093C158.452 27.5093 157.662 27.3154 156.996 26.9276C156.334 26.5358 155.823 25.9913 155.463 25.294C155.102 24.5928 154.922 23.78 154.922 22.8555C154.922 21.9231 155.102 21.1083 155.463 20.411C155.823 19.7098 156.334 19.1653 156.996 18.7775C157.662 18.3857 158.452 18.1899 159.364 18.1899C160.277 18.1899 161.064 18.3857 161.726 18.7775C162.392 19.1653 162.906 19.7098 163.266 20.411C163.626 21.1083 163.807 21.9231 163.807 22.8555C163.807 23.78 163.626 24.5928 163.266 25.294C162.906 25.9913 162.392 26.5358 161.726 26.9276C161.064 27.3154 160.277 27.5093 159.364 27.5093ZM159.376 25.5702C159.791 25.5702 160.138 25.4527 160.416 25.2176C160.694 24.9787 160.904 24.6535 161.045 24.2422C161.19 23.8309 161.262 23.3628 161.262 22.8378C161.262 22.3129 161.19 21.8448 161.045 21.4335C160.904 21.0221 160.694 20.697 160.416 20.458C160.138 20.2191 159.791 20.0996 159.376 20.0996C158.957 20.0996 158.604 20.2191 158.318 20.458C158.036 20.697 157.823 21.0221 157.678 21.4335C157.537 21.8448 157.466 22.3129 157.466 22.8378C157.466 23.3628 157.537 23.8309 157.678 24.2422C157.823 24.6535 158.036 24.9787 158.318 25.2176C158.604 25.4527 158.957 25.5702 159.376 25.5702ZM167.937 22.1151V27.333H165.434V18.3074H167.82V19.8998H167.926C168.126 19.3749 168.46 18.9596 168.931 18.6541C169.401 18.3446 169.971 18.1899 170.64 18.1899C171.267 18.1899 171.814 18.327 172.28 18.6012C172.746 18.8754 173.108 19.2671 173.367 19.7764C173.625 20.2817 173.755 20.885 173.755 21.5862V27.333H171.252V22.0328C171.255 21.4805 171.114 21.0496 170.828 20.7401C170.543 20.4267 170.149 20.27 169.647 20.27C169.311 20.27 169.013 20.3425 168.754 20.4874C168.5 20.6324 168.3 20.8439 168.155 21.122C168.014 21.3962 167.941 21.7273 167.937 22.1151ZM183.237 20.8811L180.946 21.0221C180.906 20.8263 180.822 20.65 180.693 20.4933C180.564 20.3327 180.393 20.2054 180.182 20.1113C179.974 20.0134 179.725 19.9644 179.435 19.9644C179.048 19.9644 178.721 20.0467 178.454 20.2112C178.188 20.3718 178.055 20.5873 178.055 20.8576C178.055 21.0731 178.141 21.2552 178.313 21.4041C178.485 21.5529 178.781 21.6724 179.2 21.7625L180.834 22.0916C181.711 22.2718 182.366 22.5617 182.797 22.9612C183.227 23.3608 183.443 23.8857 183.443 24.536C183.443 25.1275 183.269 25.6466 182.92 26.0932C182.575 26.5397 182.101 26.8884 181.498 27.1391C180.899 27.3859 180.207 27.5093 179.424 27.5093C178.229 27.5093 177.277 27.2605 176.568 26.763C175.863 26.2616 175.45 25.58 175.328 24.7182L177.79 24.5889C177.865 24.9532 178.045 25.2313 178.331 25.4233C178.617 25.6113 178.983 25.7053 179.43 25.7053C179.868 25.7053 180.221 25.6211 180.487 25.4527C180.758 25.2803 180.895 25.059 180.899 24.7887C180.895 24.5615 180.799 24.3754 180.611 24.2305C180.423 24.0816 180.133 23.968 179.741 23.8896L178.178 23.5782C177.297 23.4019 176.64 23.0964 176.209 22.6615C175.783 22.2267 175.569 21.6724 175.569 20.9986C175.569 20.4189 175.726 19.9194 176.039 19.5002C176.356 19.0811 176.801 18.7579 177.373 18.5307C177.949 18.3035 178.623 18.1899 179.394 18.1899C180.534 18.1899 181.431 18.4308 182.086 18.9126C182.744 19.3945 183.128 20.0506 183.237 20.8811Z" fill="white"/>
</svg>
