<svg width="136" height="74" viewBox="0 0 136 74" fill="none" xmlns="http://www.w3.org/2000/svg">
<g clip-path="url(#clip0_6_446)">
<path d="M64.9318 21.8403H8.63564C3.86631 21.8403 0 25.7066 0 30.476V42.9623C0 47.7316 3.86631 51.5979 8.63564 51.5979H64.9318C69.7011 51.5979 73.5674 47.7316 73.5674 42.9623V30.476C73.5674 25.7066 69.7011 21.8403 64.9318 21.8403Z" fill="#0A2463"/>
</g>
<path d="M9.532 34.2917V32.7533H16.7801V34.2917H14.0783V41.5787H12.2339V34.2917H9.532ZM19.9959 41.708C19.3151 41.708 18.729 41.5701 18.2377 41.2943C17.7494 41.0156 17.373 40.622 17.1087 40.1135C16.8444 39.6022 16.7123 38.9974 16.7123 38.2993C16.7123 37.6185 16.8444 37.0209 17.1087 36.5067C17.373 35.9925 17.7451 35.5917 18.2248 35.3044C18.7075 35.0171 19.2734 34.8735 19.9227 34.8735C20.3593 34.8735 20.7658 34.9439 21.1422 35.0846C21.5214 35.2225 21.8518 35.4308 22.1333 35.7095C22.4177 35.9881 22.6389 36.3386 22.7969 36.7609C22.9549 37.1804 23.0339 37.6716 23.0339 38.2347V38.7389H17.4448V37.6012H21.3059C21.3059 37.3369 21.2485 37.1028 21.1336 36.8988C21.0186 36.6949 20.8592 36.5354 20.6552 36.4205C20.4541 36.3027 20.22 36.2438 19.9528 36.2438C19.6742 36.2438 19.4271 36.3085 19.2116 36.4377C18.999 36.5642 18.8324 36.7351 18.7118 36.9505C18.5911 37.1631 18.5293 37.4001 18.5265 37.6616V38.7432C18.5265 39.0707 18.5868 39.3537 18.7075 39.5921C18.831 39.8306 19.0048 40.0144 19.2289 40.1437C19.453 40.273 19.7187 40.3376 20.0261 40.3376C20.2301 40.3376 20.4168 40.3089 20.5863 40.2514C20.7558 40.194 20.9009 40.1078 21.0215 39.9929C21.1422 39.878 21.2341 39.7372 21.2973 39.5706L22.9952 39.6826C22.909 40.0905 22.7323 40.4468 22.4651 40.7513C22.2008 41.0529 21.859 41.2885 21.4395 41.458C21.023 41.6246 20.5418 41.708 19.9959 41.708ZM27.2225 41.708C26.5445 41.708 25.9614 41.5643 25.473 41.277C24.9875 40.9869 24.614 40.5847 24.3526 40.0704C24.094 39.5562 23.9647 38.9644 23.9647 38.295C23.9647 37.617 24.0954 37.0224 24.3569 36.511C24.6212 35.9968 24.9961 35.596 25.4816 35.3087C25.9671 35.0186 26.5445 34.8735 27.2139 34.8735C27.7913 34.8735 28.297 34.9783 28.7308 35.1881C29.1646 35.3978 29.5079 35.6922 29.7607 36.0715C30.0135 36.4507 30.1528 36.896 30.1787 37.4073H28.4463C28.3975 37.077 28.2682 36.8112 28.0585 36.6101C27.8517 36.4061 27.5802 36.3042 27.2441 36.3042C26.9597 36.3042 26.7112 36.3817 26.4986 36.5369C26.2889 36.6891 26.1251 36.9118 26.0073 37.2048C25.8895 37.4978 25.8306 37.8526 25.8306 38.2692C25.8306 38.6915 25.8881 39.0506 26.003 39.3465C26.1208 39.6424 26.286 39.8679 26.4986 40.023C26.7112 40.1782 26.9597 40.2557 27.2441 40.2557C27.4538 40.2557 27.642 40.2126 27.8086 40.1265C27.9781 40.0403 28.1174 39.9153 28.2266 39.7516C28.3386 39.5849 28.4119 39.3853 28.4463 39.1526H30.1787C30.1499 39.6582 30.012 40.1035 29.765 40.4884C29.5208 40.8705 29.1832 41.1693 28.7523 41.3848C28.3214 41.6002 27.8115 41.708 27.2225 41.708ZM33.1897 37.7521V41.5787H31.354V32.7533H33.138V36.1275H33.2156C33.365 35.7368 33.6063 35.4308 33.9396 35.2096C34.2728 34.9855 34.6908 34.8735 35.1935 34.8735C35.6532 34.8735 36.054 34.974 36.3958 35.1751C36.7406 35.3734 37.0077 35.6592 37.1973 36.0327C37.3898 36.4033 37.4846 36.8471 37.4818 37.3642V41.5787H35.646V37.6917C35.6489 37.2838 35.5455 36.9663 35.3358 36.7394C35.1289 36.5124 34.8388 36.399 34.4653 36.399C34.2153 36.399 33.9941 36.4521 33.8017 36.5584C33.6121 36.6647 33.4627 36.8198 33.3535 37.0238C33.2472 37.2249 33.1926 37.4677 33.1897 37.7521ZM41.7695 41.5787V32.7533H43.6354V36.3947H47.4232V32.7533H49.2848V41.5787H47.4232V37.9331H43.6354V41.5787H41.7695ZM55.0333 38.7604V34.9597H56.869V41.5787H55.1066V40.3764H55.0376C54.8882 40.7642 54.6397 41.0759 54.2921 41.3115C53.9474 41.5471 53.5265 41.6649 53.0295 41.6649C52.5871 41.6649 52.1978 41.5643 51.8617 41.3632C51.5256 41.1621 51.2627 40.8763 51.0731 40.5057C50.8864 40.1351 50.7916 39.6912 50.7887 39.1741V34.9597H52.6244V38.8466C52.6273 39.2373 52.7322 39.5461 52.939 39.7731C53.1459 40.0001 53.4231 40.1135 53.7707 40.1135C53.9919 40.1135 54.1987 40.0633 54.3912 39.9627C54.5837 39.8593 54.7388 39.707 54.8566 39.5059C54.9773 39.3048 55.0362 39.0563 55.0333 38.7604ZM58.3719 41.5787V32.7533H60.2076V36.0715H60.2637C60.3441 35.8933 60.4604 35.7124 60.6127 35.5285C60.7678 35.3418 60.9689 35.1866 61.216 35.0631C61.4659 34.9367 61.7762 34.8735 62.1468 34.8735C62.6294 34.8735 63.0747 34.9999 63.4827 35.2527C63.8906 35.5026 64.2167 35.8804 64.4609 36.386C64.705 36.8888 64.8271 37.5194 64.8271 38.2778C64.8271 39.0161 64.7079 39.6395 64.4695 40.148C64.2339 40.6536 63.9121 41.0371 63.5042 41.2986C63.0991 41.5571 62.6452 41.6864 62.1425 41.6864C61.7863 41.6864 61.4832 41.6275 61.2332 41.5097C60.9862 41.3919 60.7836 41.244 60.6256 41.0659C60.4676 40.8849 60.347 40.7025 60.2637 40.5186H60.1818V41.5787H58.3719ZM60.1688 38.2692C60.1688 38.6628 60.2234 39.0061 60.3326 39.2991C60.4418 39.5921 60.5998 39.8205 60.8066 39.9843C61.0135 40.1451 61.2648 40.2256 61.5607 40.2256C61.8595 40.2256 62.1123 40.1437 62.3192 39.9799C62.526 39.8133 62.6826 39.5835 62.7889 39.2905C62.898 38.9946 62.9526 38.6541 62.9526 38.2692C62.9526 37.8871 62.8995 37.551 62.7932 37.2608C62.6869 36.9707 62.5303 36.7437 62.3235 36.58C62.1166 36.4162 61.8624 36.3343 61.5607 36.3343C61.262 36.3343 61.0091 36.4133 60.8023 36.5713C60.5983 36.7293 60.4418 36.9534 60.3326 37.2436C60.2234 37.5337 60.1688 37.8756 60.1688 38.2692Z" fill="white"/>
<path d="M84.4311 35.2915C84.3966 34.9439 84.2487 34.6738 83.9872 34.4813C83.7258 34.2889 83.371 34.1926 82.9228 34.1926C82.6183 34.1926 82.3612 34.2357 82.1515 34.3219C81.9418 34.4052 81.7809 34.5216 81.6689 34.671C81.5597 34.8203 81.5051 34.9898 81.5051 35.1794C81.4994 35.3375 81.5324 35.4753 81.6042 35.5931C81.6789 35.7109 81.7809 35.8129 81.9102 35.8991C82.0395 35.9824 82.1888 36.0557 82.3583 36.1189C82.5278 36.1792 82.7088 36.2309 82.9013 36.274L83.6942 36.4636C84.0792 36.5498 84.4325 36.6647 84.7543 36.8083C85.076 36.952 85.3547 37.1287 85.5903 37.3384C85.8258 37.5481 86.0083 37.7952 86.1375 38.0796C86.2697 38.364 86.3372 38.69 86.3401 39.0578C86.3372 39.5979 86.1993 40.0661 85.9264 40.4626C85.6563 40.8562 85.2656 41.1621 84.7543 41.3804C84.2458 41.5959 83.6324 41.7036 82.9142 41.7036C82.2018 41.7036 81.5812 41.5945 81.0526 41.3761C80.5269 41.1578 80.1161 40.8346 79.8202 40.4066C79.5272 39.9756 79.3735 39.4427 79.3591 38.8078H81.1647C81.1848 39.1037 81.2695 39.3508 81.4189 39.549C81.5712 39.7444 81.7737 39.8923 82.0265 39.9929C82.2822 40.0905 82.5709 40.1394 82.8927 40.1394C83.2087 40.1394 83.483 40.0934 83.7157 40.0015C83.9513 39.9096 84.1337 39.7817 84.263 39.618C84.3923 39.4542 84.4569 39.266 84.4569 39.0535C84.4569 38.8552 84.398 38.6886 84.2803 38.5536C84.1653 38.4186 83.9958 38.3036 83.7718 38.2088C83.5506 38.114 83.2791 38.0279 82.9573 37.9503L81.9964 37.709C81.2523 37.528 80.6648 37.245 80.2339 36.8601C79.803 36.4751 79.5889 35.9565 79.5918 35.3044C79.5889 34.7701 79.7311 34.3032 80.0184 33.9039C80.3086 33.5046 80.7065 33.1929 81.2121 32.9688C81.7177 32.7447 82.2923 32.6327 82.9358 32.6327C83.5908 32.6327 84.1625 32.7447 84.6509 32.9688C85.1421 33.1929 85.5242 33.5046 85.7971 33.9039C86.07 34.3032 86.2108 34.7658 86.2194 35.2915H84.4311ZM90.5513 41.708C89.8819 41.708 89.303 41.5657 88.8147 41.2813C88.3292 40.9941 87.9542 40.5947 87.6899 40.0834C87.4256 39.5691 87.2935 38.973 87.2935 38.295C87.2935 37.6113 87.4256 37.0137 87.6899 36.5024C87.9542 35.9881 88.3292 35.5888 88.8147 35.3044C89.303 35.0171 89.8819 34.8735 90.5513 34.8735C91.2207 34.8735 91.7981 35.0171 92.2836 35.3044C92.772 35.5888 93.1483 35.9881 93.4126 36.5024C93.6769 37.0137 93.8091 37.6113 93.8091 38.295C93.8091 38.973 93.6769 39.5691 93.4126 40.0834C93.1483 40.5947 92.772 40.9941 92.2836 41.2813C91.7981 41.5657 91.2207 41.708 90.5513 41.708ZM90.5599 40.2859C90.8644 40.2859 91.1187 40.1997 91.3226 40.0273C91.5266 39.8521 91.6803 39.6137 91.7837 39.312C91.89 39.0104 91.9432 38.6671 91.9432 38.2821C91.9432 37.8971 91.89 37.5538 91.7837 37.2522C91.6803 36.9505 91.5266 36.7121 91.3226 36.5369C91.1187 36.3616 90.8644 36.274 90.5599 36.274C90.2525 36.274 89.994 36.3616 89.7842 36.5369C89.5774 36.7121 89.4208 36.9505 89.3145 37.2522C89.2111 37.5538 89.1594 37.8971 89.1594 38.2821C89.1594 38.6671 89.2111 39.0104 89.3145 39.312C89.4208 39.6137 89.5774 39.8521 89.7842 40.0273C89.994 40.1997 90.2525 40.2859 90.5599 40.2859ZM96.8385 32.7533V41.5787H95.0027V32.7533H96.8385ZM102.554 38.7604V34.9597H104.389V41.5787H102.627V40.3764H102.558C102.409 40.7642 102.16 41.0759 101.812 41.3115C101.468 41.5471 101.047 41.6649 100.55 41.6649C100.107 41.6649 99.7181 41.5643 99.382 41.3632C99.0459 41.1621 98.783 40.8763 98.5934 40.5057C98.4067 40.1351 98.3119 39.6912 98.309 39.1741V34.9597H100.145V38.8466C100.148 39.2373 100.252 39.5461 100.459 39.7731C100.666 40.0001 100.943 40.1135 101.291 40.1135C101.512 40.1135 101.719 40.0633 101.912 39.9627C102.104 39.8593 102.259 39.707 102.377 39.5059C102.498 39.3048 102.556 39.0563 102.554 38.7604ZM109.378 34.9597V36.3386H105.392V34.9597H109.378ZM106.297 33.3739H108.133V39.5447C108.133 39.7142 108.159 39.8464 108.211 39.9412C108.262 40.0331 108.334 40.0977 108.426 40.1351C108.521 40.1724 108.63 40.1911 108.754 40.1911C108.84 40.1911 108.926 40.1839 109.012 40.1696C109.098 40.1523 109.164 40.1394 109.21 40.1308L109.499 41.4968C109.407 41.5255 109.278 41.5586 109.111 41.5959C108.945 41.6361 108.742 41.6605 108.504 41.6692C108.061 41.6864 107.673 41.6275 107.34 41.4925C107.01 41.3575 106.753 41.1477 106.569 40.8633C106.385 40.5789 106.294 40.2198 106.297 39.786V33.3739ZM110.574 41.5787V34.9597H112.41V41.5787H110.574ZM111.496 34.1064C111.223 34.1064 110.989 34.016 110.794 33.835C110.601 33.6511 110.505 33.4313 110.505 33.1756C110.505 32.9228 110.601 32.7059 110.794 32.525C110.989 32.3411 111.223 32.2492 111.496 32.2492C111.769 32.2492 112.002 32.3411 112.194 32.525C112.39 32.7059 112.487 32.9228 112.487 33.1756C112.487 33.4313 112.39 33.6511 112.194 33.835C112.002 34.016 111.769 34.1064 111.496 34.1064ZM116.871 41.708C116.202 41.708 115.623 41.5657 115.134 41.2813C114.649 40.9941 114.274 40.5947 114.01 40.0834C113.745 39.5691 113.613 38.973 113.613 38.295C113.613 37.6113 113.745 37.0137 114.01 36.5024C114.274 35.9881 114.649 35.5888 115.134 35.3044C115.623 35.0171 116.202 34.8735 116.871 34.8735C117.54 34.8735 118.118 35.0171 118.603 35.3044C119.092 35.5888 119.468 35.9881 119.732 36.5024C119.997 37.0137 120.129 37.6113 120.129 38.295C120.129 38.973 119.997 39.5691 119.732 40.0834C119.468 40.5947 119.092 40.9941 118.603 41.2813C118.118 41.5657 117.54 41.708 116.871 41.708ZM116.88 40.2859C117.184 40.2859 117.438 40.1997 117.642 40.0273C117.846 39.8521 118 39.6137 118.104 39.312C118.21 39.0104 118.263 38.6671 118.263 38.2821C118.263 37.8971 118.21 37.5538 118.104 37.2522C118 36.9505 117.846 36.7121 117.642 36.5369C117.438 36.3616 117.184 36.274 116.88 36.274C116.572 36.274 116.314 36.3616 116.104 36.5369C115.897 36.7121 115.741 36.9505 115.634 37.2522C115.531 37.5538 115.479 37.8971 115.479 38.2821C115.479 38.6671 115.531 39.0104 115.634 39.312C115.741 39.6137 115.897 39.8521 116.104 40.0273C116.314 40.1997 116.572 40.2859 116.88 40.2859ZM123.158 37.7521V41.5787H121.323V34.9597H123.072V36.1275H123.15C123.296 35.7425 123.542 35.438 123.887 35.2139C124.231 34.987 124.649 34.8735 125.141 34.8735C125.6 34.8735 126.001 34.974 126.343 35.1751C126.685 35.3762 126.95 35.6635 127.14 36.037C127.33 36.4076 127.424 36.85 127.424 37.3642V41.5787H125.589V37.6917C125.592 37.2867 125.488 36.9707 125.278 36.7437C125.069 36.5139 124.78 36.399 124.412 36.399C124.165 36.399 123.947 36.4521 123.757 36.5584C123.571 36.6647 123.424 36.8198 123.318 37.0238C123.214 37.2249 123.161 37.4677 123.158 37.7521ZM134.378 36.8471L132.698 36.9505C132.669 36.8069 132.607 36.6776 132.513 36.5627C132.418 36.4449 132.293 36.3516 132.138 36.2826C131.985 36.2108 131.803 36.1749 131.59 36.1749C131.306 36.1749 131.066 36.2352 130.871 36.3559C130.675 36.4737 130.578 36.6317 130.578 36.8299C130.578 36.9879 130.641 37.1215 130.767 37.2306C130.894 37.3398 131.111 37.4274 131.418 37.4935L132.616 37.7348C133.259 37.867 133.739 38.0796 134.055 38.3726C134.371 38.6656 134.529 39.0506 134.529 39.5275C134.529 39.9613 134.401 40.3419 134.146 40.6694C133.893 40.9969 133.545 41.2526 133.103 41.4365C132.663 41.6175 132.156 41.708 131.582 41.708C130.706 41.708 130.007 41.5255 129.487 41.1607C128.97 40.793 128.667 40.2931 128.578 39.6611L130.384 39.5663C130.438 39.8334 130.571 40.0374 130.78 40.1782C130.99 40.3161 131.259 40.385 131.586 40.385C131.908 40.385 132.166 40.3232 132.362 40.1997C132.56 40.0733 132.661 39.911 132.663 39.7128C132.661 39.5461 132.59 39.4097 132.452 39.3034C132.314 39.1942 132.102 39.1109 131.814 39.0535L130.668 38.8251C130.022 38.6958 129.541 38.4717 129.225 38.1528C128.911 37.8339 128.755 37.4274 128.755 36.9333C128.755 36.5081 128.87 36.1418 129.1 35.8345C129.332 35.5271 129.658 35.2901 130.078 35.1234C130.5 34.9568 130.994 34.8735 131.56 34.8735C132.396 34.8735 133.054 35.0502 133.534 35.4035C134.016 35.7569 134.298 36.2381 134.378 36.8471Z" fill="#0A2463"/>
<defs>
<clipPath id="clip0_6_446">
<rect width="73.5674" height="73.5674" fill="white"/>
</clipPath>
</defs>
</svg>
